<svg xmlns="http://www.w3.org/2000/svg" width="23" height="23" viewBox="0 0 23 23">
    <path fill="#A8A9B0" fill-rule="evenodd" d="M22.782 21.751l-5.94-5.845c1.555-1.689 2.51-3.925 2.51-6.382C19.352 4.262 15.02 0 9.678 0 4.331 0 0 4.262 0 9.524c0 5.259 4.331 9.524 9.678 9.524 2.306 0 4.426-.8 6.09-2.127l5.96 5.865a.756.756 0 0 0 1.054 0 .723.723 0 0 0 0-1.035zm-13.104-4.17c-4.525 0-8.19-3.609-8.19-8.057 0-4.45 3.665-8.06 8.19-8.06 4.521 0 8.186 3.61 8.186 8.06 0 4.448-3.665 8.057-8.186 8.057z"/>
</svg>
